<?xml version="1.0" encoding="UTF-8"?>
<!DOCTYPE svg PUBLIC "-//W3C//DTD SVG 1.1//EN" "http://www.w3.org/Graphics/SVG/1.1/DTD/svg11.dtd">
<!-- Creator: CorelDRAW 2018 (64-Bit Evaluation Version) -->
<svg xmlns="http://www.w3.org/2000/svg" xml:space="preserve" width="104.401mm" height="52.8072mm" version="1.1" style="shape-rendering:geometricPrecision; text-rendering:geometricPrecision; image-rendering:optimizeQuality; fill-rule:evenodd; clip-rule:evenodd"
viewBox="0 0 10170.35 5144.3"
 xmlns:xlink="http://www.w3.org/1999/xlink">
 <defs>
  <style type="text/css">
   <![CDATA[
    .fil0 {fill:#FEFEFE}
    .fil1 {fill:#FEFEFE;fill-rule:nonzero}
   ]]>
  </style>
 </defs>
 <g id="Layer_x0020_1">
  <metadata id="CorelCorpID_0Corel-Layer"/>
  <g id="_2791544941168">
   <path class="fil0" d="M6505.55 1623.44c-738.83,0 -1344.84,569.6 -1402.91,1293.5 -50.26,3.28 -100.92,4.44 -151.94,3.21 48.47,18.03 98.09,34.06 148.8,47.88 -0.94,20.85 -1.47,41.83 -1.47,62.91 0,777.24 630.29,1407.53 1407.52,1407.53 79.94,0 158.28,-6.78 234.6,-19.6 -665.6,-111.73 -1172.95,-690.66 -1172.95,-1387.93l0.02 -1.97c767.72,-5.69 1454.19,-527.09 1651.6,-1287.91 -262.03,-50.34 -469.68,-117.63 -713.28,-117.63zm-921.75 1191.15c87.44,-566.51 462.62,-971.38 1013.47,-1102.58 -152.11,546.99 -508.23,916.14 -1013.47,1102.58z"/>
   <path class="fil0" d="M2945.93 764.59c1209.2,0 2189.84,980.64 2189.84,2189.85 0,1209.22 -980.64,2189.86 -2189.84,2189.86 -124.37,0 -246.28,-10.53 -364.98,-30.46 1035.53,-173.85 1824.88,-1074.55 1824.88,-2159.4 0,-1084.86 -789.35,-1985.58 -1824.88,-2159.4 118.7,-19.92 240.61,-30.45 364.98,-30.45z"/>
   <path class="fil0" d="M5247.19 2089.96c309.27,-562.79 123.94,-1264.23 -410.37,-1604.07l-194.34 353.63c477.09,303.47 675.84,895.24 492.75,1419.17 41.27,-52.22 78.82,-108.48 111.95,-168.73z"/>
   <path class="fil1" d="M1130.71 3053.65l0 677.83c0,54.49 18.95,81.71 55.65,81.71 37.89,0 97.68,-28.42 178.79,-84.66l0 192.38c-71.63,46.19 -129.06,77.56 -172.88,94.14 -43.2,17.18 -88.8,25.45 -136.16,25.45 -134.97,0 -214.89,-53.28 -239.16,-159.82 -134.39,104.17 -277.06,156.28 -428.6,156.28 -110.7,0 -203.07,-36.7 -277.06,-110.13 -73.99,-73.4 -111.29,-165.75 -111.29,-276.46 0,-100.63 36.11,-190.62 108.33,-269.93 72.23,-79.35 175.23,-142.1 307.85,-188.25l404.33 -138.55 0 -85.24c0,-191.81 -95.9,-287.71 -287.71,-287.71 -172.27,0 -340.4,88.79 -503.2,266.99l0 -345.15c122.54,-144.44 298.95,-216.68 529.26,-216.68 172.25,0 310.2,45.03 414.39,135 34.33,29 65.71,67.49 93.54,115.44 27.82,47.95 45.59,95.9 52.67,143.86 7.71,48.51 11.25,139.11 11.25,273.49zm-310.2 643.5l0 -473.6 -211.93 81.71c-107.15,42.61 -183.52,85.83 -227.93,129.05 -44.39,43.22 -66.89,97.1 -66.89,162.22 0,65.71 21.31,119.58 63.34,161.01 42.62,42.05 97.09,62.76 163.98,62.76 100.64,0 193.59,-41.43 279.42,-123.14zm1543.6 -1279.88l376.51 0 -681.98 782.01 820.51 813.42 -423.29 0 -799.19 -813.42 707.43 -782.01zm-1037.19 -827.61l315.54 0 0 2423.05 -315.54 0 0 -2423.05zm2386.02 1464l0 677.83c0,54.49 18.96,81.71 55.65,81.71 37.89,0 97.67,-28.42 178.78,-84.66l0 192.38c-71.63,46.19 -129.06,77.56 -172.87,94.14 -43.21,17.18 -88.79,25.45 -136.15,25.45 -134.99,0 -214.91,-53.28 -239.18,-159.82 -134.39,104.17 -277.04,156.28 -428.61,156.28 -110.7,0 -203.05,-36.7 -277.04,-110.13 -74.01,-73.4 -111.31,-165.75 -111.31,-276.46 0,-100.63 36.12,-190.62 108.35,-269.93 72.21,-79.35 175.23,-142.1 307.84,-188.25l404.34 -138.55 0 -85.24c0,-191.81 -95.91,-287.71 -287.7,-287.71 -172.28,0 -340.4,88.79 -503.22,266.99l0 -345.15c122.55,-144.44 298.96,-216.68 529.26,-216.68 172.27,0 310.2,45.03 414.4,135 34.33,29 65.72,67.49 93.53,115.44 27.82,47.95 45.59,95.9 52.69,143.86 7.69,48.51 11.24,139.11 11.24,273.49zm-310.2 643.5l0 -473.6 -211.93 81.71c-107.16,42.61 -183.52,85.83 -227.93,129.05 -44.4,43.22 -66.9,97.1 -66.9,162.22 0,65.71 21.32,119.58 63.34,161.01 42.63,42.05 97.1,62.76 163.98,62.76 100.64,0 193.6,-41.43 279.43,-123.14z"/>
   <path class="fil1" d="M8668.05 2881.98l0 1158.54 -317.32 0 0 -887.99c0,-177.01 -23.68,-300.14 -71.04,-369.99 -47.36,-70.46 -130.24,-105.38 -248.04,-105.38 -66.32,0 -126.7,15.38 -181.16,44.98 -55.06,30.19 -117.82,83.49 -188.27,159.84l0 1158.54 -315.53 0 0 -1595.44 315.53 0 0 209.59c160.45,-160.46 317.91,-240.94 471.84,-240.94 201.86,0 358.75,95.9 470.04,287.71 168.72,-194.17 345.14,-291.28 528.66,-291.28 155.11,0 282.37,56.84 382.43,169.92 100.05,113.65 149.77,286.52 149.77,518.58l0 941.85 -315.53 0 0 -945.4c0,-132.61 -27.23,-234.44 -81.1,-304.89 -54.47,-70.44 -132.61,-105.95 -234.44,-105.95 -130.82,0 -252.78,65.7 -365.84,197.71zm1312.87 -1108.23c52.1,0 96.5,17.78 133.78,53.88 36.71,35.52 55.65,79.34 55.65,131.44 0,50.89 -18.95,95.29 -55.65,132 -37.28,37.32 -81.68,55.65 -133.78,55.65 -48.55,0 -91.16,-18.96 -127.88,-56.23 -37.29,-37.89 -55.65,-81.72 -55.65,-131.42 0,-48.55 18.36,-91.17 55.65,-129.06 36.72,-37.3 79.33,-56.27 127.88,-56.27zm-155.69 671.33l315.53 0 0 1595.44 -315.53 0 0 -1595.44z"/>
   <path class="fil1" d="M5578.42 0l1309.23 0 0 176.61 -635.24 0 0 1210.26 -199.28 0 0 -1210.26 -474.71 0 0 -176.61zm970.47 475.04l0 209.1 10.15 -15.91c89,-139.47 174.24,-193.19 261.53,-193.19 68.01,0 139.07,16.56 213.17,85.25l-95.08 158.35c-62.93,-59.21 -121.12,-89 -174.58,-89 -58.21,0 -108.62,27.76 -151.25,83.25 -42.64,55.49 -63.94,121.11 -63.94,197.26l0 476.71 -181.36 0 0 -911.82 181.36 0zm923.76 911.82l0 -116.04c-38.57,41.64 -82.22,74.09 -131.28,97.12 -49.41,23.34 -98.47,34.83 -147.53,34.83 -57.16,0 -110.3,-14.53 -159.01,-43.31 -48.39,-28.74 -85.27,-67.67 -109.96,-116.72 -24.7,-49.39 -37.21,-130.94 -37.21,-245.29l0 -522.41 180.34 0 0 520.38c0,95.74 13.87,162.73 41.28,200.64 27.41,37.88 75.45,56.84 144.14,56.84 85.94,0 159.02,-41.96 219.25,-125.87l0 -651.99 180.34 0 0 911.82 -180.34 0zm184.14 -911.82l0 115.72c80.53,-88.99 172.22,-115.72 274.73,-115.72 56.85,0 109.59,-3.33 158.35,26.04 49.01,29.51 86.28,69.71 111.65,121.13 25.38,51.1 38.25,132.29 38.25,243.29l0 521.36 -180.35 0 0 -519.36c0,-93.37 -14.2,-159.69 -42.64,-199.62 -28.41,-40.26 -76.11,-60.23 -142.77,-60.23 -85.27,0 -157.67,42.63 -217.22,127.9l0 651.31 -184.39 0 0 -911.82 184.39 0zm1033.06 927.73l-4.73 16.94c35.52,8.45 63.6,25.02 83.57,49.37 20.3,24.38 30.11,52.11 30.11,83.25 0,50.4 -19.96,93.03 -60.22,128.58 -40.27,35.17 -104.89,52.78 -193.54,52.78 -24.37,0 -45.68,-1.36 -64.29,-4.74l0 -111.98c33.83,2.36 54.81,3.69 63.61,3.69 37.55,0 66.98,-7.1 87.97,-21.66 12.51,-8.44 18.95,-19.95 18.95,-33.83 0,-15.9 -6.77,-29.09 -20.3,-39.57 -13.54,-10.49 -38.58,-15.9 -74.79,-15.9 -7.43,0 -14.88,1.02 -23,3.03l43.65 -121.78c-85.94,-19.29 -164.43,-64.3 -235.84,-135.35 -71.4,-71.06 -106.91,-177.64 -106.91,-319.74 0,-143.47 41.35,-259.1 123.83,-346.81 82.64,-87.89 191.16,-114.01 326.17,-114.01 121.44,0 145.41,-7.63 264.57,45.34l0 192.51c-91.35,-58.2 -175.93,-87.31 -253.75,-87.31 -81.2,0 -148.2,28.44 -200.3,85.62 -52.11,57.18 -78.16,130.26 -78.16,218.58 0,93.35 28.08,167.47 84.59,222.3 56.49,54.8 132.63,82.22 228.37,82.22 69.37,0 149.21,-20.32 238.88,-60.58l0 178.31c-90.32,33.85 -178.98,50.74 -265.61,50.74l-12.85 0z"/>
   <path class="fil1" d="M8960.59 790.02c0,-97.09 35.54,-173.91 106.59,-230.4 71.05,-56.5 168.16,-84.58 290.98,-84.58l375.55 0 0 140.74 -184.39 0c35.86,36.2 60.56,69.36 74.44,99.14 13.86,29.78 20.98,63.59 20.98,101.83 0,47.72 -13.54,94.41 -40.6,140.44 -27.08,46 -62.26,81.2 -104.55,105.55 -42.64,24.36 -112.67,43.98 -209.79,58.53 -68,9.83 -102.18,33.17 -102.18,70.38 0,20.97 12.86,38.56 38.24,52.11 25.38,13.53 71.39,27.4 138.38,41.96 111.65,24.35 183.39,43.65 215.53,57.52 32.14,13.86 60.9,33.82 86.6,59.53 43.65,43.66 65.66,98.46 65.66,164.45 0,86.61 -38.58,155.65 -115.72,207.41 -76.81,51.42 -180.01,77.12 -308.57,77.12 -130.28,0 -234.14,-26.05 -311.96,-77.82 -77.49,-51.76 -116.4,-121.45 -116.4,-208.76 0,-123.49 76.47,-203 229.08,-238.88 -60.91,-38.89 -91.37,-77.47 -91.37,-115.7 0,-29.09 13.2,-55.83 39.26,-79.5 26.05,-23.69 61.24,-41.29 105.56,-52.45 -134.32,-59.56 -201.33,-155.65 -201.33,-288.63zm339.04 -158.32c-48.73,0 -90.34,16.22 -124.85,49.37 -34.52,33.18 -51.44,72.78 -51.44,119.12 0,46.68 16.91,85.61 50.41,116.39 33.83,30.76 76.46,46 127.9,46 50.74,0 2.83,-15.47 36.93,-47.03 33.92,-31.36 50.75,-70.71 50.75,-117.39 0,-47.72 -16.92,-87.31 -51.44,-119.12 -34.5,-31.79 13.49,-47.34 -38.28,-47.34zm-42.63 797.81c-60.56,0 -110.31,12.86 -149.22,38.57 -38.57,25.71 -57.85,58.87 -57.85,99.14 0,94.07 84.58,140.75 253.75,140.75 79.84,0 141.78,-11.51 185.76,-35.2 43.98,-23.33 65.97,-56.49 65.97,-99.45 0,-42.31 -27.74,-76.81 -83.23,-103.52 -55.48,-26.76 -127.22,-40.28 -215.18,-40.28zm543.46 -1338.16c29.78,0 55.16,10.13 76.46,30.79 20.98,20.29 31.81,45.34 31.81,75.12 0,29.07 -10.82,54.47 -31.81,75.45 -21.31,21.31 -46.68,31.8 -76.46,31.8 -27.75,0 -52.11,-10.82 -73.09,-32.13 -21.31,-21.66 -31.81,-46.7 -31.81,-75.12 0,-27.76 10.5,-52.13 31.81,-73.76 20.98,-21.32 45.34,-32.15 73.09,-32.15zm-88.99 383.7l180.34 0 0 911.82 -180.34 0 0 -911.82zm278.54 -473.04l180.34 0 0 1384.86 -180.34 0 0 -1384.86z"/>
  </g>
 </g>
</svg>
