<svg width="214" height="53" viewBox="0 0 214 53" fill="none" xmlns="http://www.w3.org/2000/svg">
                        <g clip-path="url(#clip0)">
                            <path d="M53.5837 37.4383C52.9139 38.1149 52.579 38.9043 52.579 39.9191C52.579 40.934 52.9139 41.8362 53.5837 42.5128C54.2535 43.1894 55.035 43.5277 56.0397 43.5277H59.9468V42.2872H56.0397C55.3699 42.2872 54.8117 42.0617 54.3652 41.7234C53.9186 41.2723 53.6954 40.8213 53.6954 40.1447C53.6954 39.4681 53.9186 38.9043 54.3652 38.4532C54.8117 38.0021 55.3699 37.7766 56.0397 37.7766H59.9468V36.5362H56.0397C55.035 36.4234 54.1419 36.7617 53.5837 37.4383Z" fill="#E30613"></path>
                            <path d="M72.3381 36.4234H70.3287C69.324 36.4234 68.5425 36.7617 67.8727 37.3255C67.2029 38.0021 66.868 38.7915 66.868 39.8064C66.868 40.8213 67.2029 41.7234 67.8727 42.4C68.5425 43.0766 69.324 43.4149 70.3287 43.4149H72.2264C73.2311 43.4149 74.0125 43.0766 74.6823 42.4C75.3521 41.7234 75.687 40.934 75.687 39.8064C75.687 38.7915 75.3521 38.0021 74.6823 37.3255C74.1242 36.7617 73.3427 36.4234 72.3381 36.4234ZM73.9009 41.6106C73.4544 42.0617 72.8962 42.1745 72.2264 42.1745H70.3287C69.6589 42.1745 69.1007 41.9489 68.6542 41.6106C68.3193 41.1596 68.096 40.5957 68.096 39.9191C68.096 39.2426 68.3193 38.6787 68.7658 38.2277C69.2123 37.7766 69.7705 37.5511 70.4403 37.5511H72.3381C73.0078 37.5511 73.566 37.7766 74.0125 38.2277C74.4591 38.6787 74.6823 39.2426 74.6823 39.9191C74.5707 40.5957 74.3474 41.1596 73.9009 41.6106Z" fill="#E30613"></path>
                            <path d="M88.4132 41.2723L84.0595 36.7617C83.8362 36.5362 83.613 36.4234 83.3897 36.4234C83.2781 36.4234 83.0548 36.5362 83.0548 36.6489C82.9432 36.7617 82.9432 36.8745 82.9432 37.1V43.4149H84.1711V38.566L88.5248 43.0766C88.7481 43.3021 89.083 43.5277 89.3062 43.5277C89.6411 43.5277 89.7528 43.3021 89.7528 42.8511V36.5362H88.5248V41.2723H88.4132Z" fill="#E30613"></path>
                            <path d="M103.93 39.6936C103.484 39.3553 102.925 39.1298 102.256 39.1298H99.0183C98.795 39.1298 98.5717 39.017 98.4601 38.9043C98.2368 38.7915 98.2368 38.566 98.2368 38.3404C98.2368 38.1149 98.3485 38.0021 98.4601 37.7766C98.5717 37.6638 98.795 37.5511 99.0183 37.5511H104.153V36.3106H99.0183C98.4601 36.3106 97.9019 36.4234 97.567 36.7617C97.1205 37.1 96.8972 37.5511 96.8972 38.2277C96.8972 38.7915 97.1205 39.2426 97.567 39.6936C98.0136 40.0319 98.4601 40.1447 99.0183 40.1447H102.256C102.591 40.1447 102.814 40.2574 103.149 40.3702C103.484 40.5957 103.595 40.8213 103.595 41.0468C103.595 41.3851 103.484 41.6106 103.149 41.8362C102.925 41.9489 102.591 42.0617 102.256 42.0617H97.0089V43.3021H102.256C102.925 43.3021 103.484 43.0766 103.93 42.7383C104.377 42.2872 104.6 41.8362 104.6 41.1596C104.6 40.5957 104.377 40.0319 103.93 39.6936Z" fill="#E30613"></path>
                            <path d="M111.298 37.6638H113.977V43.4149H115.093V37.6638H117.884V36.4234H111.298V37.6638Z" fill="#E30613"></path>
                            <path d="M132.062 40.483C132.396 40.0319 132.62 39.5808 132.62 39.017C132.62 38.1149 132.285 37.5511 131.727 37.1C131.169 36.7617 130.499 36.5362 129.606 36.5362H124.694V43.4149H125.922V37.6638H129.829C130.945 37.6638 131.503 38.1149 131.503 39.017C131.503 39.4681 131.28 39.8064 130.945 40.0319C130.61 40.2574 130.275 40.3702 129.829 40.3702H126.592V41.6106H129.159L131.057 43.5277H132.843L130.722 41.3851C131.28 41.1596 131.727 40.934 132.062 40.483Z" fill="#E30613"></path>
                            <path d="M146.351 40.2574C146.351 41.0468 146.127 41.4979 145.681 41.8362C145.346 42.0617 144.788 42.1745 144.006 42.1745C143.113 42.1745 142.443 42.0617 142.109 41.9489C141.55 41.7234 141.215 41.1596 141.215 40.2574V36.4234H139.987V40.2574C139.987 41.3851 140.322 42.1745 140.992 42.7383C141.55 43.1894 142.443 43.4149 143.56 43.4149H144.006C145.123 43.4149 146.016 43.1894 146.574 42.7383C147.244 42.1745 147.579 41.3851 147.579 40.2574V36.4234H146.351V40.2574Z" fill="#E30613"></path>
                            <path d="M155.839 37.4383C155.17 38.1149 154.835 38.9043 154.835 39.9191C154.835 40.934 155.17 41.8362 155.839 42.5128C156.509 43.1894 157.291 43.5277 158.295 43.5277H162.202V42.2872H158.295C157.625 42.2872 157.067 42.0617 156.621 41.7234C156.174 41.2723 155.951 40.8213 155.951 40.1447C155.951 39.4681 156.174 38.9043 156.621 38.4532C157.067 38.0021 157.625 37.7766 158.295 37.7766H162.202V36.5362H158.295C157.291 36.4234 156.509 36.7617 155.839 37.4383Z" fill="#E30613"></path>
                            <path d="M169.012 37.6638H171.691V43.4149H172.919V37.6638H175.598V36.4234H169.012V37.6638Z" fill="#E30613"></path>
                            <path d="M183.859 36.4234H182.631V43.3021H183.859V36.4234Z" fill="#E30613"></path>
                            <path d="M196.697 36.4234H194.799C193.794 36.4234 193.013 36.7617 192.343 37.3255C191.673 38.0021 191.339 38.7915 191.339 39.8064C191.339 40.8213 191.673 41.7234 192.343 42.4C193.013 43.0766 193.794 43.4149 194.799 43.4149H196.697C197.702 43.4149 198.483 43.0766 199.153 42.4C199.823 41.7234 200.158 40.934 200.158 39.8064C200.158 38.7915 199.823 38.0021 199.153 37.3255C198.483 36.7617 197.702 36.4234 196.697 36.4234ZM198.26 41.6106C197.813 42.0617 197.255 42.1745 196.585 42.1745H194.688C194.018 42.1745 193.46 41.9489 193.013 41.6106C192.567 41.1596 192.343 40.7085 192.343 40.0319C192.343 39.3553 192.567 38.7915 193.013 38.3404C193.46 37.8894 194.018 37.6638 194.688 37.6638H196.585C197.255 37.6638 197.813 37.8894 198.26 38.3404C198.706 38.7915 198.93 39.3553 198.93 40.0319C198.93 40.5957 198.706 41.1596 198.26 41.6106Z" fill="#E30613"></path>
                            <path d="M212.772 36.4234V41.2723L208.418 36.7617C208.195 36.5362 207.972 36.4234 207.749 36.4234C207.637 36.4234 207.414 36.5362 207.414 36.6489C207.302 36.7617 207.302 36.8745 207.302 37.1V43.4149H208.53V38.566L212.884 43.0766C213.107 43.3021 213.442 43.5277 213.665 43.5277C214 43.5277 214.112 43.3021 214.112 42.8511V36.5362H212.772V36.4234Z" fill="#E30613"></path>
                            <path d="M73.9009 19.1702C72.5613 17.9298 70.7752 17.366 68.7658 17.366H59.277C58.7188 17.366 58.2723 17.2532 57.8258 16.9149C57.4909 16.6894 57.2676 16.2383 57.2676 15.7872C57.2676 15.3362 57.4909 14.8851 57.8258 14.6596C58.2723 14.3213 58.7188 14.2085 59.277 14.2085H74.9056V9.58511H59.277C57.3793 9.58511 55.8164 10.1489 54.5884 11.1638C53.2488 12.2915 52.579 13.7575 52.579 15.6745C52.579 17.5915 53.2488 19.0575 54.5884 20.1851C55.8164 21.2 57.3793 21.7638 59.277 21.7638H68.7658C69.6589 21.7638 70.4403 21.9894 70.9985 22.3277C71.6682 22.7787 72.0031 23.3426 72.0031 24.0192C72.0031 24.8085 71.6682 25.3723 70.9985 25.8234C70.3287 26.1617 69.5472 26.3872 68.7658 26.3872H52.9139V30.7851H68.7658C70.7752 30.7851 72.5613 30.2213 73.9009 29.0936C75.3521 27.8532 76.1336 26.1617 76.1336 24.1319C76.1336 22.1021 75.3521 20.4106 73.9009 19.1702Z" fill="black"></path>
                            <path d="M76.6917 14.0958H84.6176V30.8979H88.9713V14.0958H96.8972V9.58511H76.6917V14.0958Z" fill="black"></path>
                            <path d="M122.461 9.58511H117.996V30.8979H136.304V26.3872H122.461V9.58511Z" fill="black"></path>
                            <path d="M142.443 9.58511H137.978V30.8979H156.286V26.3872H142.443V9.58511Z" fill="black"></path>
                            <path d="M207.079 24.4702C208.53 24.0192 209.646 23.2298 210.539 22.1021C211.656 20.7489 212.214 19.1702 212.214 17.366C212.214 14.7724 211.209 12.6298 209.311 11.2766C207.637 10.1489 205.404 9.47235 202.725 9.47235H187.878V30.6723H192.232V14.0958H203.283C207.19 14.0958 207.637 16.0128 207.637 17.4787C207.637 18.6064 207.19 19.3958 206.297 19.9596C205.516 20.5234 204.511 20.7489 203.283 20.7489H194.353V25.1468H201.274L206.856 30.8979H213.33L207.079 24.4702Z" fill="black"></path>
                            <path d="M116.21 17.9298H98.795V22.3277H116.21V17.9298Z" fill="#E30613"></path>
                            <path d="M116.21 26.3872H98.6834V30.7851H116.21V26.3872Z" fill="url(#paint0_linear)"></path>
                            <path d="M116.21 9.58511H98.6834V13.983H116.21V9.58511Z" fill="black"></path>
                            <path d="M186.315 30.8979L175.263 11.8404C174.929 11.2766 174.482 10.8255 174.035 10.3745C173.366 9.92341 172.808 9.58511 172.138 9.58511C171.58 9.58511 170.91 9.81065 170.24 10.3745C169.682 10.8255 169.235 11.2766 169.012 11.8404L157.625 30.8979H163.207L172.026 16.2383L178.054 26.2745L180.845 30.8979H186.315Z" fill="black"></path>
                            <path d="M36.6161 32.0255C34.3834 38.3404 28.3553 42.9638 21.3224 42.9638C16.1873 42.9638 11.6104 40.5957 8.59627 36.7617H25.4528C27.4622 36.7617 29.1367 36.1979 30.4763 35.0702C31.9275 33.8298 32.5973 32.2511 32.5973 30.2213C32.5973 28.1915 31.9275 26.6128 30.4763 25.3723C29.1367 24.2447 27.4622 23.5681 25.4528 23.5681H16.5222C16.0757 23.5681 15.6291 23.4553 15.2942 23.2298C14.9593 23.0042 14.8477 22.7787 14.8477 22.3277C14.8477 21.8766 14.9593 21.6511 15.2942 21.4255C15.6291 21.2 16.0757 21.0872 16.5222 21.0872H36.5045H40.7465C40.1883 20.2979 39.7418 19.6213 39.4069 18.9447C39.4069 18.8319 39.2953 18.6064 39.1836 18.4936C39.072 18.2681 39.072 18.1553 38.9604 18.0425C38.7371 17.4787 38.6255 17.0277 38.6255 16.5766C38.6255 16.1255 38.6255 15.6745 38.6255 15.3362C38.6255 15.2234 38.6255 15.1106 38.6255 15.1106C38.6255 15.1106 38.6255 15.1106 38.6255 14.9979C38.6255 14.8851 38.6255 14.7723 38.7371 14.7723C38.7371 14.6596 38.7371 14.6596 38.8487 14.6596C38.9604 14.434 39.072 14.3213 39.072 14.2085C39.1836 13.983 39.2953 13.8702 39.4069 13.7574C40.0767 12.9681 41.3047 12.517 41.3047 12.517C43.0908 11.7277 41.4163 9.13404 41.193 8.9085C40.3 7.44255 38.7371 6.42765 37.7324 5.86382C37.7324 5.86382 37.6208 5.86382 37.6208 5.75106C36.951 5.41276 36.6161 5.29999 36.3928 5.29999C35.723 5.29999 35.4998 5.86382 35.4998 5.86382C34.4951 10.2617 30.0298 8.79574 30.0298 8.79574C23.6667 7.44255 25.4528 2.81914 25.4528 2.81914C25.8993 1.80425 25.5644 1.12765 24.8947 0.789355C24.3365 0.451057 23.4434 0.338291 22.5504 0.225525C22.1038 0.225525 21.7689 0.225525 21.3224 0.225525C20.9875 0.225525 20.541 0.225525 20.0944 0.225525C19.2014 0.225525 18.3083 0.451057 17.7502 0.789355C17.0804 1.12765 16.7455 1.80425 17.192 2.81914C17.192 2.81914 18.9781 7.32978 12.6151 8.79574C12.6151 8.79574 8.14974 10.2617 7.14505 5.86382C7.14505 5.86382 7.03341 5.29999 6.25198 5.29999C6.02872 5.29999 5.69382 5.29999 5.02402 5.75106C5.02402 5.75106 4.91239 5.75106 4.91239 5.86382C3.9077 6.08935 2.45647 7.10425 1.45177 8.57021C1.22851 8.9085 -0.445982 11.3894 1.34014 12.1787C1.34014 12.1787 2.45647 12.6298 3.12627 13.4191C3.2379 13.5319 3.34953 13.6447 3.46116 13.8702C3.46116 13.8702 3.5728 14.0957 3.68443 14.3213V14.434C3.68443 14.5468 3.68443 14.6596 3.79606 14.6596C3.79606 14.6596 3.79606 14.6596 3.79606 14.7723C3.79606 14.8851 3.79606 14.9979 3.79606 14.9979C3.9077 15.6745 3.79606 16.5766 3.46116 17.7042C3.34953 17.817 3.34953 18.0425 3.2379 18.1553C3.12627 18.2681 3.12627 18.4936 3.01463 18.6064C2.79137 18.9447 2.67973 19.3957 2.34484 19.734H6.36362C9.0428 14.2085 14.7361 10.1489 21.3224 10.1489C26.4575 10.1489 31.0345 12.517 34.0485 16.3511H16.6338C14.8477 16.3511 13.2848 16.9149 12.0569 17.817C10.7173 18.9447 10.0475 20.4106 10.0475 22.2149C10.0475 24.0191 10.7173 25.4851 12.0569 26.6128C13.2848 27.6277 14.8477 28.0787 16.6338 28.0787H25.5644C26.3459 28.0787 27.0157 28.1915 27.5738 28.5298C28.132 28.8681 28.4669 29.3191 28.4669 29.9957C28.4669 30.6723 28.2436 31.1234 27.6855 31.4617C27.1273 31.8 26.4575 32.0255 25.6761 32.0255H6.14035L2.00994 31.9128L2.12157 32.0255C2.5681 32.8149 3.01463 33.717 3.34953 35.0702C3.46116 35.2957 3.46116 35.5213 3.5728 35.8596C3.5728 36.1979 3.5728 36.4234 3.5728 36.6489C3.46116 38.7915 1.34014 39.8064 1.34014 39.8064C-0.78088 40.3702 0.335447 42.4 0.335447 42.4C0.670346 43.3021 1.56341 44.2042 2.00994 44.6553C2.5681 45.3319 3.34953 45.8957 4.24259 46.4596C4.57749 46.6851 4.91239 46.7979 5.24729 46.7979C5.24729 46.7979 5.24729 46.7979 5.35892 46.7979C5.35892 46.7979 6.58688 47.1362 7.36831 44.9936C7.36831 44.9936 8.48464 42.8511 12.6151 44.0915C13.2848 44.317 13.9546 44.6553 14.7361 45.1064C14.8477 45.1064 14.8477 45.2191 14.9593 45.2191C14.9593 45.2191 15.7408 45.6702 16.1873 46.4596C17.4153 48.1511 16.6338 49.7298 16.6338 49.7298C15.964 50.7447 15.964 51.3085 16.4106 51.7596C16.5222 51.8723 16.6338 51.9851 16.6338 51.9851C16.7455 52.0979 16.9687 52.2106 17.3036 52.3234H17.4153C17.5269 52.3234 17.6385 52.4362 17.8618 52.4362C17.8618 52.4362 20.9875 53.3383 24.3365 52.5489C24.6714 52.4362 25.0063 52.4362 25.2296 52.3234H25.3412C25.5644 52.2106 25.7877 52.0979 26.011 51.9851C26.1226 51.8723 26.2342 51.8723 26.2342 51.7596C26.5691 51.3085 26.6808 50.7447 26.011 49.7298C26.011 49.7298 25.2296 48.1511 26.4575 46.4596C27.0157 45.5574 27.6855 45.2191 27.6855 45.2191C27.7971 45.2191 27.7971 45.1064 27.9087 45.1064C28.6902 44.6553 29.36 44.317 30.0298 44.0915C34.2718 42.8511 35.3881 44.9936 35.3881 44.9936C36.1696 47.1362 37.3975 46.7979 37.3975 46.7979H37.5092C37.8441 46.6851 38.179 46.5723 38.5139 46.4596C39.4069 45.8957 40.1883 45.3319 40.7465 44.6553C41.3047 44.2042 42.0861 43.3021 42.5326 42.4C42.5326 42.4 43.5373 40.483 41.4163 39.8064C41.4163 39.8064 38.8487 38.4532 39.1836 35.8596C39.2953 35.634 39.2953 35.2957 39.4069 35.0702C39.7418 33.717 40.1883 32.7021 40.6349 31.9128H36.6161V32.0255Z" fill="url(#paint1_linear)"></path>
                        </g>
                        <defs>
                            <linearGradient id="paint0_linear" x1="107.398" y1="9.99469" x2="107.398" y2="18.6326" gradientUnits="userSpaceOnUse">
                                <stop stop-color="#9D9D9C"></stop>
                                <stop offset="0.0865638" stop-color="#888888"></stop>
                                <stop offset="0.3002" stop-color="#545453"></stop>
                                <stop offset="0.4596" stop-color="#282828"></stop>
                                <stop offset="0.5455"></stop>
                                <stop offset="1"></stop>
                            </linearGradient>
                            <linearGradient id="paint1_linear" x1="21.1279" y1="9.28537" x2="21.3471" y2="40.086" gradientUnits="userSpaceOnUse">
                                <stop offset="0.2606" stop-color="#E21714"></stop>
                                <stop offset="0.8545"></stop>
                            </linearGradient>
                            <clipPath id="clip0">
                                <rect width="214" height="53" fill="white"></rect>
                            </clipPath>
                        </defs>
                    </svg>